# xmcd
#
# Track frame offsets:
#	150
#	22940
#	36777
#	59552
#
# Disc length: 974 seconds
#
# Revision: 1
# Processed by: cddbd v1.5PL3 Copyright (c) Steve Scherf et al.
# Submitted via: CDex 1.50Beta5
#
DISCID=2b03cc04
DTITLE=TAO - HELLO VIFAM
DYEAR=1900
DGENRE=Rock
TTITLE0=HELLO, VIFAM
TTITLE1=NEVER GIVE UP
TTITLE2=HELLO, VIFAM(カラオケ)
TTITLE3=NEVER GIVE UP(カラオケ)
EXTD=
EXTT0=
EXTT1=
EXTT2=
EXTT3=
PLAYORDER=
